<svg xmlns="http://www.w3.org/2000/svg" viewBox="0 0 520 708" width="64" height="64" preserveAspectRatio="xMidYMid meet" role="img" aria-labelledby="title desc">
  <title id="title">AGROFLET</title>
  <desc id="desc">Emblema de hoja verde y ruta azul con circuitos blancos y una línea vial naranja.</desc>
  <defs>
    <linearGradient id="green" x1="48" y1="250" x2="479" y2="250" gradientUnits="userSpaceOnUse">
      <stop offset="0" stop-color="#11A650"/>
      <stop offset="1" stop-color="#0EA45B"/>
    </linearGradient>
    <linearGradient id="blue" x1="117" y1="430" x2="490" y2="450" gradientUnits="userSpaceOnUse">
      <stop offset="0" stop-color="#064570"/>
      <stop offset="1" stop-color="#033F70"/>
    </linearGradient>
    <clipPath id="roadClip">
      <path d="M477 184C498 242 495 299 473 361C436 477 355 606 270 692C198 619 151 552 116 484C126 417 174 394 238 380C371 352 442 311 477 184Z"/>
    </clipPath>
  </defs>
  <!-- Arco exterior de la hoja. -->
  <path fill="url(#green)" d="M100 455C63 390 48 326 48 264C48 139 141 40 249 33C305 27 355 39 401 64C375 80 352 87 321 85C256 83 208 97 166 133C107 183 104 229 106 280C107 317 115 349 127 377Z"/>
  <!-- Hoja y nervadura recortada en su silueta. -->
  <path fill="url(#green)" d="M135 359C150 246 211 171 285 136C350 105 424 99 479 34C476 122 467 201 431 259C381 334 308 344 236 363C202 371 175 378 150 389C192 301 267 237 352 180C260 209 183 267 135 359Z"/>
  <!-- Base de ubicación y carretera. -->
  <path fill="url(#blue)" d="M477 184C498 242 495 299 473 361C436 477 355 606 270 692C198 619 151 552 116 484C126 417 174 394 238 380C371 352 442 311 477 184Z"/>
  <g clip-path="url(#roadClip)">
    <g fill="none" stroke="#FFF" stroke-width="14" stroke-linecap="round" stroke-linejoin="round">
      <path d="M188 611C173 569 161 539 171 502C184 451 219 431 255 420L303 407"/>
      <path d="M334 634C304 610 276 580 258 548C238 514 246 481 264 461C286 439 324 441 361 431L380 411"/>
      <path d="M291 588C298 565 302 544 306 521"/>
    </g>
    <path d="M287 652C244 608 206 559 209 514C210 485 225 461 249 449" fill="none" stroke="#F39109" stroke-width="11" stroke-dasharray="38 20 24 16 23 15 18 17 26 14 12 100"/>
  </g>
  <g fill="url(#blue)" stroke="#FFF" stroke-width="10">
    <circle cx="315" cy="405" r="12"/>
    <circle cx="391" cy="397" r="16"/>
    <circle cx="307" cy="507" r="16"/>
  </g>
</svg>
